# xmcd
#
# Track frame offsets:
#	150
#	16533
#	35048
#	53809
#	69992
#	86621
#	104568
#	117422
#	135583
#	146450
#	165479
#	183162
#	201920
#	218851
#	236470
#	252273
#	267417
#	283783
#	299465
#	315122
#	331302
#
# Disc length: 4652 seconds
#
# Revision: 0
# Processed by: cddbd v1.5.2PL0 Copyright (c) Steve Scherf et al.
# Submitted via: dBpowerAMP V4.0
#
DISCID=31122a15
DTITLE=Various Artist - ERG Nu Country Traxx Volume 168
DYEAR=2008
DGENRE=Country
TTITLE0=Chris Cagle - No Love Songs
TTITLE1=Martina Mcbride - Hit Me With Your Best Shot
TTITLE2=Steve Holy - Might Have Been
TTITLE3=Carter's Chord - Different Breed
TTITLE4=Jason Aldean - Relentless
TTITLE5=David Nail - I'm About To Come Alive
TTITLE6=Charlie Major - Make It Right
TTITLE7=George Canyon - Seven Spanish Angels
TTITLE8=J R Vautour - I Give
TTITLE9=Cross Canadian Ragweed - Cry Lonely
TTITLE10=Cowboy Crush - Tougher Than A Man
TTITLE11=Jamey Johnson - In Colour
TTITLE12=Fisher Stevenson - No tomorrow Here Tonight
TTITLE13=Aaron Lines - Somebody's Son
TTITLE14=Joshua Stevens - Rock 'N' Roll And Pensacola
TTITLE15=Alex J. Robinson - That's Who I Am
TTITLE16=Mark Chesnutt - When You Love Her like Crazy
TTITLE17=Laura Bryna - Life Is Good
TTITLE18=Aaron Lines - Cheaper to Keep Her
TTITLE19=Eddie Money - Gimme Some Water
TTITLE20=John Michael Montgomery - If You Ever Went Away
EXTD=
EXTT0=
EXTT1=
EXTT2=
EXTT3=
EXTT4=
EXTT5=
EXTT6=
EXTT7=
EXTT8=
EXTT9=
EXTT10=
EXTT11=
EXTT12=
EXTT13=
EXTT14=
EXTT15=
EXTT16=
EXTT17=
EXTT18=
EXTT19=
EXTT20=
PLAYORDER=
